<mxfile host="app.diagrams.net" modified="2021-03-27T09:08:17.653Z" agent="5.0 (Windows NT 10.0; Win64; x64) AppleWebKit/537.36 (KHTML, like Gecko) Chrome/89.0.4389.90 Safari/537.36" etag="vZUnSfm2mVIZl2M2PibD" version="14.4.3" type="github">
  <diagram id="OwX1Tfsp2Xdk8FmUzgD0" name="第 1 页">
    <mxGraphModel dx="1008" dy="539" grid="1" gridSize="10" guides="1" tooltips="1" connect="1" arrows="1" fold="1" page="1" pageScale="1" pageWidth="3300" pageHeight="4681" math="0" shadow="0">
      <root>
        <mxCell id="0" />
        <mxCell id="1" parent="0" />
        <mxCell id="2UmjyUCVCARyHqoZPk_U-183" value="" style="ellipse;html=1;shape=startState;fillColor=#000000;strokeColor=#ff0000;" vertex="1" parent="1">
          <mxGeometry x="357.5" y="2610" width="30" height="30" as="geometry" />
        </mxCell>
        <mxCell id="2UmjyUCVCARyHqoZPk_U-184" value="" style="edgeStyle=orthogonalEdgeStyle;html=1;verticalAlign=bottom;endArrow=open;endSize=8;strokeColor=#ff0000;entryX=0.5;entryY=0;entryDx=0;entryDy=0;" edge="1" parent="1" source="2UmjyUCVCARyHqoZPk_U-183" target="2UmjyUCVCARyHqoZPk_U-187">
          <mxGeometry relative="1" as="geometry">
            <mxPoint x="272.5" y="2680" as="targetPoint" />
          </mxGeometry>
        </mxCell>
        <mxCell id="2UmjyUCVCARyHqoZPk_U-185" style="edgeStyle=orthogonalEdgeStyle;orthogonalLoop=1;jettySize=auto;html=1;endArrow=open;endSize=8;strokeColor=#ff0000;exitX=0.5;exitY=1;exitDx=0;exitDy=0;exitPerimeter=0;" edge="1" parent="1" source="2UmjyUCVCARyHqoZPk_U-190" target="2UmjyUCVCARyHqoZPk_U-189">
          <mxGeometry relative="1" as="geometry" />
        </mxCell>
        <mxCell id="2UmjyUCVCARyHqoZPk_U-186" style="edgeStyle=orthogonalEdgeStyle;orthogonalLoop=1;jettySize=auto;html=1;endArrow=open;endSize=8;strokeColor=#ff0000;" edge="1" parent="1" source="2UmjyUCVCARyHqoZPk_U-187" target="2UmjyUCVCARyHqoZPk_U-190">
          <mxGeometry relative="1" as="geometry" />
        </mxCell>
        <mxCell id="2UmjyUCVCARyHqoZPk_U-187" value="查询汽车经销商准备数据" style="rounded=1;whiteSpace=wrap;html=1;arcSize=40;fontColor=#000000;fillColor=#ffffc0;strokeColor=#ff0000;" vertex="1" parent="1">
          <mxGeometry x="307.5" y="2670" width="130" height="50" as="geometry" />
        </mxCell>
        <mxCell id="2UmjyUCVCARyHqoZPk_U-188" style="edgeStyle=orthogonalEdgeStyle;orthogonalLoop=1;jettySize=auto;html=1;entryX=0.5;entryY=0;entryDx=0;entryDy=0;endArrow=open;endSize=8;strokeColor=#ff0000;" edge="1" parent="1" source="2UmjyUCVCARyHqoZPk_U-189" target="2UmjyUCVCARyHqoZPk_U-200">
          <mxGeometry relative="1" as="geometry" />
        </mxCell>
        <mxCell id="2UmjyUCVCARyHqoZPk_U-189" value="Loop" style="shape=umlFrame;whiteSpace=wrap;html=1;fillColor=#fad7ac;strokeColor=#b46504;" vertex="1" parent="1">
          <mxGeometry x="52.5" y="2810" width="640" height="260" as="geometry" />
        </mxCell>
        <mxCell id="2UmjyUCVCARyHqoZPk_U-190" value="关联查询授信台账信息" style="rounded=1;whiteSpace=wrap;html=1;arcSize=40;fontColor=#000000;fillColor=#ffffc0;strokeColor=#ff0000;" vertex="1" parent="1">
          <mxGeometry x="312.5" y="2750" width="120" height="40" as="geometry" />
        </mxCell>
        <mxCell id="2UmjyUCVCARyHqoZPk_U-191" style="edgeStyle=orthogonalEdgeStyle;orthogonalLoop=1;jettySize=auto;html=1;endArrow=open;endSize=8;strokeColor=#ff0000;exitX=1;exitY=0.5;exitDx=0;exitDy=0;" edge="1" parent="1" source="2UmjyUCVCARyHqoZPk_U-195" target="2UmjyUCVCARyHqoZPk_U-196">
          <mxGeometry relative="1" as="geometry" />
        </mxCell>
        <mxCell id="2UmjyUCVCARyHqoZPk_U-192" value="是" style="edgeLabel;html=1;align=center;verticalAlign=middle;resizable=0;points=[];" vertex="1" connectable="0" parent="2UmjyUCVCARyHqoZPk_U-191">
          <mxGeometry x="-0.0278" y="2" relative="1" as="geometry">
            <mxPoint as="offset" />
          </mxGeometry>
        </mxCell>
        <mxCell id="2UmjyUCVCARyHqoZPk_U-193" style="edgeStyle=orthogonalEdgeStyle;orthogonalLoop=1;jettySize=auto;html=1;endArrow=open;endSize=8;strokeColor=#ff0000;" edge="1" parent="1" source="2UmjyUCVCARyHqoZPk_U-195" target="2UmjyUCVCARyHqoZPk_U-197">
          <mxGeometry relative="1" as="geometry" />
        </mxCell>
        <mxCell id="2UmjyUCVCARyHqoZPk_U-194" value="否" style="edgeLabel;html=1;align=center;verticalAlign=middle;resizable=0;points=[];" vertex="1" connectable="0" parent="2UmjyUCVCARyHqoZPk_U-193">
          <mxGeometry x="-0.0794" y="-2" relative="1" as="geometry">
            <mxPoint as="offset" />
          </mxGeometry>
        </mxCell>
        <mxCell id="2UmjyUCVCARyHqoZPk_U-195" value="更新成功" style="rhombus;whiteSpace=wrap;html=1;fillColor=#ffffc0;strokeColor=#ff0000;" vertex="1" parent="1">
          <mxGeometry x="312.5" y="2940" width="80" height="40" as="geometry" />
        </mxCell>
        <mxCell id="2UmjyUCVCARyHqoZPk_U-196" value="插入额度恢复流水" style="rounded=1;whiteSpace=wrap;html=1;arcSize=40;fontColor=#000000;fillColor=#ffffc0;strokeColor=#ff0000;" vertex="1" parent="1">
          <mxGeometry x="522.5" y="2940" width="120" height="40" as="geometry" />
        </mxCell>
        <mxCell id="2UmjyUCVCARyHqoZPk_U-197" value="插入异常额度恢复流水" style="rounded=1;whiteSpace=wrap;html=1;arcSize=40;fontColor=#000000;fillColor=#ffffc0;strokeColor=#ff0000;" vertex="1" parent="1">
          <mxGeometry x="292.5" y="3010" width="120" height="40" as="geometry" />
        </mxCell>
        <mxCell id="2UmjyUCVCARyHqoZPk_U-198" style="edgeStyle=orthogonalEdgeStyle;orthogonalLoop=1;jettySize=auto;html=1;entryX=0.5;entryY=0;entryDx=0;entryDy=0;endArrow=open;endSize=8;strokeColor=#ff0000;" edge="1" parent="1" source="2UmjyUCVCARyHqoZPk_U-199" target="2UmjyUCVCARyHqoZPk_U-195">
          <mxGeometry relative="1" as="geometry" />
        </mxCell>
        <mxCell id="2UmjyUCVCARyHqoZPk_U-199" value="更新可用、已用额度" style="rounded=1;whiteSpace=wrap;html=1;arcSize=40;fontColor=#000000;fillColor=#ffffc0;strokeColor=#ff0000;" vertex="1" parent="1">
          <mxGeometry x="292.5" y="2860" width="120" height="40" as="geometry" />
        </mxCell>
        <mxCell id="2UmjyUCVCARyHqoZPk_U-200" value="" style="ellipse;html=1;shape=endState;fillColor=#000000;strokeColor=#ff0000;" vertex="1" parent="1">
          <mxGeometry x="357.5" y="3120" width="30" height="30" as="geometry" />
        </mxCell>
        <mxCell id="2UmjyUCVCARyHqoZPk_U-201" style="edgeStyle=orthogonalEdgeStyle;orthogonalLoop=1;jettySize=auto;html=1;endArrow=open;endSize=8;strokeColor=#ff0000;" edge="1" parent="1" source="2UmjyUCVCARyHqoZPk_U-205" target="2UmjyUCVCARyHqoZPk_U-199">
          <mxGeometry relative="1" as="geometry" />
        </mxCell>
        <mxCell id="2UmjyUCVCARyHqoZPk_U-202" value="否" style="edgeLabel;html=1;align=center;verticalAlign=middle;resizable=0;points=[];" vertex="1" connectable="0" parent="2UmjyUCVCARyHqoZPk_U-201">
          <mxGeometry x="-0.1012" y="-1" relative="1" as="geometry">
            <mxPoint as="offset" />
          </mxGeometry>
        </mxCell>
        <mxCell id="2UmjyUCVCARyHqoZPk_U-203" value="" style="edgeStyle=orthogonalEdgeStyle;orthogonalLoop=1;jettySize=auto;html=1;endArrow=open;endSize=8;strokeColor=#ff0000;entryX=0.5;entryY=0;entryDx=0;entryDy=0;" edge="1" parent="1" source="2UmjyUCVCARyHqoZPk_U-205" target="2UmjyUCVCARyHqoZPk_U-207">
          <mxGeometry relative="1" as="geometry" />
        </mxCell>
        <mxCell id="2UmjyUCVCARyHqoZPk_U-204" value="是" style="edgeLabel;html=1;align=center;verticalAlign=middle;resizable=0;points=[];" vertex="1" connectable="0" parent="2UmjyUCVCARyHqoZPk_U-203">
          <mxGeometry x="0.1422" y="-1" relative="1" as="geometry">
            <mxPoint as="offset" />
          </mxGeometry>
        </mxCell>
        <mxCell id="2UmjyUCVCARyHqoZPk_U-205" value="是否到期" style="rhombus;whiteSpace=wrap;html=1;fillColor=#ffffc0;strokeColor=#ff0000;" vertex="1" parent="1">
          <mxGeometry x="142.5" y="2860" width="80" height="40" as="geometry" />
        </mxCell>
        <mxCell id="2UmjyUCVCARyHqoZPk_U-206" style="edgeStyle=orthogonalEdgeStyle;orthogonalLoop=1;jettySize=auto;html=1;endArrow=open;endSize=8;strokeColor=#ff0000;exitX=1;exitY=0.5;exitDx=0;exitDy=0;" edge="1" parent="1" source="2UmjyUCVCARyHqoZPk_U-207" target="2UmjyUCVCARyHqoZPk_U-195">
          <mxGeometry relative="1" as="geometry" />
        </mxCell>
        <mxCell id="2UmjyUCVCARyHqoZPk_U-207" value="更新逾期失效额度" style="rounded=1;whiteSpace=wrap;html=1;arcSize=40;fontColor=#000000;fillColor=#ffffc0;strokeColor=#ff0000;" vertex="1" parent="1">
          <mxGeometry x="122.5" y="2940" width="120" height="40" as="geometry" />
        </mxCell>
      </root>
    </mxGraphModel>
  </diagram>
</mxfile>
